#!OML:ASF F:\VICON\USERDATA\INSTALL\rory3\rory3.ASF
:FULLY-SPECIFIED
:DEGREES
693
root -2.4331 17.2322 1.79244 0.0948924 41.8409 -0.591194
lowerback 11.1108 -1.85984 -2.93291
upperback -1.50872 -2.6841 2.58926
thorax -7.5874 -1.11913 4.87545
lowerneck -18.2393 -12.7779 -15.2141
upperneck 19.5044 -16.8261 13.3153
head 11.9041 -7.34959 4.44694
rclavicle -1.38155e-014 2.82274e-014
rhumerus 25.4431 -11.453 -35.3801
rradius 64.414
rwrist 0.904774
rhand -4.14467 3.09497
rfingers 7.12502
rthumb 21.615 -25.7186
lclavicle -1.38155e-014 2.82274e-014
lhumerus 11.5051 -39.6552 82.4051
lradius 123.06
lwrist -10.0399
lhand -7.18107 5.50999
lfingers 7.12502
lthumb 18.6967 34.6315
rfemur -7.24879 4.50068 0.82009
rtibia 32.4113
rfoot -10.3008 -3.31546
rtoes -6.42199
lfemur -23.6949 -7.11121 0.317888
ltibia 49.9683
lfoot 3.19902 -13.4281
ltoes -32.6148
694
root -2.58186 17.0893 1.89167 -0.34035 43.5792 -1.22755
lowerback 10.9108 -2.42046 -3.51444
upperback -1.71796 -3.4852 2.91863
thorax -7.5624 -1.47547 5.68665
lowerneck -17.8042 -12.4084 -15.1239
upperneck 19.5476 -16.3407 13.145
head 11.7317 -7.16698 4.49465
rclavicle 5.40446e-015 9.93923e-015
rhumerus 23.9539 -10.2485 -37.4218
rradius 67.6833
rwrist 1.16136
rhand -3.15146 4.64115
rfingers 7.12502
rthumb 22.5686 -24.0597
lclavicle 5.40446e-015 9.93923e-015
lhumerus 11.3704 -39.5455 82.0285
lradius 123.575
lwrist -10.8279
lhand -6.68429 5.07334
lfingers 7.12502
lthumb 19.1744 34.1481
rfemur -7.34181 2.2477 1.81544
rtibia 34.2627
rfoot -12.4548 -1.5885
rtoes -9.33461
lfemur -24.2036 -7.48305 1.14833
ltibia 51.1558
lfoot 1.22434 -13.3651
ltoes -33.2515
695
root -2.72173 16.9564 1.99075 -0.976207 44.9769 -1.86185
lowerback 10.9975 -2.97752 -4.00526
upperback -1.89721 -4.28049 3.19745
thorax -7.65442 -1.82915 6.40718
lowerneck -17.6063 -11.9991 -14.9428
upperneck 19.9767 -15.7221 12.5488
head 11.6772 -6.9464 4.38907
rclavicle -7.75633e-014 1.98785e-015
rhumerus 22.2473 -9.14154 -39.7395
rradius 70.6746
rwrist 5.42455
rhand -3.60324 6.50487
rfingers 7.12502
rthumb 22.1349 -22.248
lclavicle -7.75633e-014 1.98785e-015
lhumerus 11.0994 -38.9597 81.6525
lradius 124.132
lwrist -11.2006
lhand -6.03717 4.8796
lfingers 7.12502
lthumb 19.7966 33.8914
rfemur -7.59347 0.226938 2.71796
rtibia 36.3214
rfoot -14.1921 0.170142
rtoes -7.84203
lfemur -24.1653 -7.90919 1.87032
ltibia 51.8549
lfoot -1.77699 -13.3084
ltoes -33.2633
696
root -2.85388 16.8221 2.08067 -1.80685 45.8646 -2.47267
lowerback 11.3488 -3.40226 -4.40622
upperback -1.95052 -4.90258 3.38355
thorax -7.78109 -2.10361 6.96682
lowerneck -17.6834 -11.7374 -14.7929
upperneck 20.5494 -15.2759 11.9299
head 11.7629 -6.79382 4.23092
rclavicle 7.03201e-015 6.75868e-015
rhumerus 20.378 -8.23998 -42.2391
rradius 73.566
rwrist 10.1486
rhand -4.9722 8.47235
rfingers 7.12502
rthumb 20.8201 -20.4306
lclavicle 7.03201e-015 6.75868e-015
lhumerus 11.0742 -38.0735 81.1247
lradius 124.569
lwrist -11.0214
lhand -5.4808 4.91229
lfingers 7.12502
lthumb 20.3314 33.8681
rfemur -7.93926 -1.65198 3.42867
rtibia 38.5294
rfoot -15.578 1.8347
rtoes -6.45294
lfemur -23.6093 -8.17535 2.47619
ltibia 52.0624
lfoot -5.23922 -12.7135
ltoes -32.1606
697
root -2.98229 16.6837 2.15371 -2.82098 46.3656 -3.16186
lowerback 11.7531 -3.67411 -4.62887
upperback -1.78379 -5.30766 3.4219
thorax -7.74935 -2.29538 7.22486
lowerneck -17.9132 -11.643 -14.6881
upperneck 20.9615 -15.1352 11.7449
head 11.9149 -6.72902 4.16997
rclavicle 6.80216e-015 2.62396e-014
rhumerus 18.4313 -7.67965 -44.9053
rradius 76.5317
rwrist 11.6507
rhand -5.69291 10.4175
rfingers 7.12502
rthumb 20.1275 -18.5599
lclavicle 6.80216e-015 2.62396e-014
lhumerus 11.7178 -37.3454 80.3444
lradius 124.7
lwrist -10.5734
lhand -5.43765 4.8779
lfingers 7.12502
lthumb 20.3729 33.8292
rfemur -8.40825 -3.1464 4.09152
rtibia 40.8343
rfoot -16.867 3.2208
rtoes -8.3807
lfemur -22.7451 -8.36089 3.08334
ltibia 51.8099
lfoot -8.87355 -11.2262
ltoes -31.4636
698
root -3.09928 16.556 2.2047 -3.83908 46.5914 -3.90445
lowerback 12.1734 -3.85204 -4.56506
upperback -1.59064 -5.5583 3.28922
thorax -7.76072 -2.4266 7.1129
lowerneck -17.8456 -11.631 -14.5037
upperneck 21.0851 -15.2539 11.9411
head 11.9708 -6.74678 4.1959
rclavicle -2.66092e-014 8.15017e-015
rhumerus 16.2214 -7.07133 -47.478
rradius 79.8207
rwrist 9.43312
rhand -5.08745 11.7614
rfingers 7.12502
rthumb 20.7094 -17.1536
lclavicle -2.66092e-014 8.15017e-015
lhumerus 12.6328 -36.9594 79.5694
lradius 124.52
lwrist -10.143
lhand -5.86944 4.76707
lfingers 7.12502
lthumb 19.9579 33.7622
rfemur -9.08563 -4.29923 4.73453
rtibia 43.1403
rfoot -17.8736 4.53553
rtoes -9.32268
lfemur -21.7945 -8.52126 3.63766
ltibia 51.1518
lfoot -12.3296 -9.12206
ltoes -31.5413
699
root -3.20074 16.4391 2.2347 -4.76297 46.4253 -4.92304
lowerback 12.423 -3.93368 -4.10841
upperback -1.53113 -5.61024 3.20671
thorax -7.88126 -2.46842 6.79569
lowerneck -17.4256 -11.6594 -14.4158
upperneck 20.9152 -15.4655 12.3131
head 11.8874 -6.81397 4.29441
rclavicle 3.20851e-014 1.15295e-014
rhumerus 13.8753 -6.30528 -49.7208
rradius 83.3901
rwrist 5.25365
rhand -3.72633 12.3066
rfingers 7.12502
rthumb 22.0167 -16.4602
lclavicle 3.20851e-014 1.15295e-014
lhumerus 13.364 -36.6289 79.1709
lradius 124.211
lwrist -9.79219
lhand -6.0795 5.14682
lfingers 7.12502
lthumb 19.7559 34.1628
rfemur -10.1953 -5.17966 5.58453
rtibia 45.2946
rfoot -18.4958 5.7433
rtoes -8.77804
lfemur -20.8299 -8.56488 4.44683
ltibia 50.182
lfoot -15.4057 -7.21229
ltoes -31.3429
700
root -3.28806 16.3406 2.25692 -5.26169 45.8319 -5.80274
lowerback 12.3201 -3.84437 -3.63225
upperback -1.483 -5.41569 3.1836
thorax -7.84251 -2.3977 6.45633
lowerneck -17.2015 -11.8123 -14.6203
upperneck 20.572 -15.7683 12.8478
head 11.8353 -6.92199 4.46864
rclavicle 5.47931e-014 -6.95746e-015
rhumerus 11.4204 -5.39001 -51.5664
rradius 86.4235
rwrist 4.32939
rhand -6.0001 12.7643
rfingers 7.12502
rthumb 19.8323 -16.2439
lclavicle 5.47931e-014 -6.95746e-015
lhumerus 14.106 -36.336 79.1152
lradius 123.816
lwrist -9.58398
lhand -6.02273 5.92442
lfingers 7.12502
lthumb 19.8105 34.9348
rfemur -11.6558 -5.6051 6.41623
rtibia 47.1934
rfoot -19.0378 6.56278
rtoes -9.88576
lfemur -19.7261 -8.59944 5.2887
ltibia 48.9569
lfoot -17.9648 -5.72627
ltoes -29.3773
701
root -3.3618 16.2702 2.28371 -5.02464 44.9053 -5.81735
lowerback 11.9872 -3.58005 -3.78976
upperback -1.35053 -5.08319 3.11919
thorax -7.5454 -2.24664 6.37983
lowerneck -17.5774 -12.1167 -14.9623
upperneck 20.3475 -16.1323 13.205
head 11.951 -7.05765 4.5588
rclavicle 3.63908e-014 -8.39865e-015
rhumerus 9.11977 -4.7284 -53.2392
rradius 89.3829
rwrist 3.92101
rhand -7.33809 13.4057
rfingers 7.12502
rthumb 18.5456 -15.7302
lclavicle 3.63908e-014 -8.39865e-015
lhumerus 14.8511 -36.0215 79.288
lradius 123.426
lwrist -9.48415
lhand -6.1807 6.24979
lfingers 7.12502
lthumb 19.6586 35.2758
rfemur -13.1482 -5.43335 6.64472
rtibia 48.8058
rfoot -19.4183 7.47179
rtoes -10.1871
lfemur -18.4159 -8.50326 5.39042
ltibia 47.548
lfoot -20.1428 -3.9704
ltoes -26.3994
702
root -3.4267 16.2213 2.31587 -4.03515 43.9583 -4.78819
lowerback 11.524 -3.30418 -4.81072
upperback -1.18813 -4.86138 2.95686
thorax -7.06853 -2.12683 6.6947
lowerneck -18.4381 -12.4246 -15.1375
upperneck 20.4036 -16.3809 13.0932
head 12.1828 -7.15207 4.4522
rclavicle -1.18249e-013 -8.74653e-015
rhumerus 7.03238 -3.98372 -54.8686
rradius 92.1572
rwrist 3.79617
rhand -7.987 14.4565
rfingers 7.12502
rthumb 17.9214 -14.7378
lclavicle -1.18249e-013 -8.74653e-015
lhumerus 15.1799 -35.456 79.5909
lradius 123.317
lwrist -9.52393
lhand -6.20947 6.29013
lfingers 7.12502
lthumb 19.631 35.319
rfemur -14.4764 -4.97483 6.02742
rtibia 50.0949
rfoot -19.6227 8.56348
rtoes -8.47506
lfemur -17.0917 -8.11851 4.46208
ltibia 45.9863
lfoot -22.0142 -1.43126
ltoes -25.6278
703
root -3.49339 16.1818 2.34426 -2.9155 43.4368 -3.54709
lowerback 11.1822 -3.15438 -6.05032
upperback -1.12874 -4.83654 2.72839
thorax -6.73672 -2.09073 7.11375
lowerneck -18.7678 -12.4565 -15.1618
upperneck 20.1327 -16.3369 13.0971
head 12.1367 -7.12396 4.44827
rclavicle 5.91255e-015 1.2452e-014
rhumerus 4.83937 -3.19575 -56.4404
rradius 94.8362
rwrist 3.44756
rhand -8.19852 15.2992
rfingers 7.12502
rthumb 17.7178 -13.9136
lclavicle 5.91255e-015 1.2452e-014
lhumerus 14.8981 -35.0064 80.0439
lradius 123.525
lwrist -9.66712
lhand -6.1475 6.02848
lfingers 7.12502
lthumb 19.6906 35.0512
rfemur -15.4674 -4.75676 5.21565
rtibia 50.964
rfoot -19.9544 9.24254
rtoes -7.92181
lfemur -16.0823 -7.65832 3.30544
ltibia 44.3563
lfoot -23.3592 0.987161
ltoes -27.0307
704
root -3.5518 16.1637 2.36217 -2.14086 43.3218 -2.71438
lowerback 11.0798 -3.12779 -6.90266
upperback -1.16149 -4.92677 2.54149
thorax -6.64849 -2.11096 7.40138
lowerneck -18.546 -12.2535 -15.1031
upperneck 19.5298 -16.0544 13.2464
head 11.8286 -6.99998 4.55748
rclavicle -2.67598e-014 -1.74185e-014
rhumerus 2.50044 -2.49217 -57.947
rradius 97.4321
rwrist 2.94655
rhand -8.28923 15.9737
rfingers 7.12502
rthumb 17.6305 -13.2469
lclavicle -2.67598e-014 -1.74185e-014
lhumerus 14.1997 -34.8356 80.7821
lradius 123.878
lwrist -9.795
lhand -5.92649 5.6884
lfingers 7.12502
lthumb 19.903 34.6892
rfemur -15.9883 -4.77854 4.73564
rtibia 51.3325
rfoot -20.5125 9.36943
rtoes -8.91848
lfemur -15.3762 -7.5771 2.55201
ltibia 42.8452
lfoot -24.0382 2.54485
ltoes -27.9516
705
root -3.58985 16.1759 2.37 -1.77672 43.3111 -2.38025
lowerback 10.9471 -3.20616 -7.1957
upperback -1.08655 -5.06537 2.46255
thorax -6.45189 -2.18335 7.48439
lowerneck -18.7113 -12.1354 -15.0002
upperneck 19.1426 -15.83 13.2141
head 11.664 -6.89579 4.56505
rclavicle 4.64007e-014 -1.47598e-014
rhumerus 0.366072 -1.83003 -59.5093
rradius 99.9308
rwrist 2.64957
rhand -8.51787 16.4868
rfingers 7.12502
rthumb 17.4105 -12.7535
lclavicle 4.64007e-014 -1.47598e-014
lhumerus 13.4766 -34.6924 81.5748
lradius 124.299
lwrist -9.70651
lhand -5.53956 5.45467
lfingers 7.12502
lthumb 20.2749 34.4164
rfemur -16.0956 -4.68572 4.67669
rtibia 51.176
rfoot -21.0475 9.20854
rtoes -8.7056
lfemur -14.7871 -7.96459 2.29581
ltibia 41.6428
lfoot -24.1478 3.26684
ltoes -27.9974
706
root -3.61742 16.2073 2.36472 -1.47271 43.4262 -2.28077
lowerback 10.7235 -3.4114 -7.22321
upperback -0.95965 -5.32257 2.47252
thorax -6.13993 -2.33093 7.51499
lowerneck -19.3548 -12.0741 -14.9428
upperneck 19.0658 -15.6567 13.2209
head 11.724 -6.78509 4.5688
rclavicle -3.29656e-014 1.2921e-015
rhumerus -1.68684 -1.13205 -61.2003
rradius 102.492
rwrist 2.2825
rhand -8.6127 17.0236
rfingers 7.12502
rthumb 17.3192 -12.2247
lclavicle -3.29656e-014 1.2921e-015
lhumerus 12.7986 -34.431 82.2221
lradius 124.787
lwrist -9.22631
lhand -5.11866 5.37047
lfingers 7.12502
lthumb 20.6794 34.2888
rfemur -16.0738 -4.59945 4.83964
rtibia 50.612
rfoot -21.505 8.70445
rtoes -8.45409
lfemur -14.6362 -8.1899 2.32937
ltibia 40.8338
lfoot -23.8805 2.99043
ltoes -27.6938
707
root -3.64424 16.2507 2.34944 -1.09995 43.6329 -2.18755
lowerback 10.694 -3.69296 -7.28637
upperback -0.960555 -5.69949 2.55174
thorax -6.04328 -2.51933 7.6796
lowerneck -19.9187 -11.9544 -14.9726
upperneck 19.0149 -15.4128 13.3193
head 11.7848 -6.64247 4.6404
rclavicle 6.456e-014 -1.71452e-015
rhumerus -3.90346 -0.3058 -62.9406
rradius 105.006
rwrist 1.5594
rhand -8.6912 17.9002
rfingers 7.12502
rthumb 17.2437 -11.3547
lclavicle 6.456e-014 -1.71452e-015
lhumerus 11.9161 -34.0877 82.8911
lradius 125.285
lwrist -8.4414
lhand -4.95134 5.39315
lfingers 7.12502
lthumb 20.8402 34.2939
rfemur -16.0152 -4.57154 5.02278
rtibia 49.7962
rfoot -21.8838 7.82706
rtoes -9.22237
lfemur -15.0059 -7.83325 2.5254
ltibia 40.3401
lfoot -23.2262 1.07316
ltoes -25.0977
